<?xml version="1.0" encoding="UTF-8"?>
<svg id="Layer_2" data-name="Layer 2" xmlns="http://www.w3.org/2000/svg" xmlns:xlink="http://www.w3.org/1999/xlink" viewBox="0 0 763.56 920.26">
  <defs>
    <style>
      .cls-1 {
        fill: none;
      }

      .cls-2 {
        fill: #060300;
      }

      .cls-3 {
        fill: #040201;
      }

      .cls-4 {
        fill: #020302;
      }

      .cls-5 {
        fill: #fff;
      }

      .cls-6 {
        fill: #fefefe;
      }

      .cls-7 {
        clip-path: url(#clippath);
      }
    </style>
    <clipPath id="clippath">
      <path class="cls-1" d="M381.27,888.46c-41.85-7.66-82.48-20.71-120.76-38.78l-2.54-1.2c-36.67-17.29-98.06-46.23-149.87-110.23-51.03-63.03-76.91-129.95-76.91-198.88v-200.45l1.76-.88.05-.02c4.2-1.97,44.37-17.52,107.59-32.75,56.58-13.63,144.35-29.88,241.17-29.88,187.18,0,332.6,56.15,348.56,62.55l2,.8v1.92c.02,34.46.07,198.69.07,198.69,0,68.94-25.88,135.85-76.92,198.88-51.81,64-113.19,92.94-149.87,110.23l-2.55,1.2c-38.29,18.08-78.92,31.12-120.76,38.78l-.51.09-.51-.09Z"/>
    </clipPath>
  </defs>
  <g id="Layer_2-2" data-name="Layer 2">
    <g>
      <path class="cls-4" d="M.01,459.1H0V71.4l15.12-5.34c51.04-18.03,103.78-32.6,156.76-43.31C240.64,8.87,311.13,1.22,381.38,0h.39s.39,0,.39,0c70.26,1.21,140.75,8.87,209.5,22.75,52.99,10.71,105.73,25.28,156.77,43.31l15.12,5.34v387.7h-.12"/>
      <path class="cls-4" d="M763.48,329.16s.07,129.49.07,132.37v77.84c0,76.27-28.21,149.78-83.86,218.51-56.3,69.54-121.72,100.39-160.81,118.82l-2.54,1.2c-40.7,19.21-83.91,33.09-128.44,41.25l-6.13,1.12-6.13-1.12c-44.53-8.16-87.75-22.04-128.46-41.26l-2.52-1.19c-39.09-18.43-104.51-49.28-160.81-118.82C28.22,689.15,0,615.63,0,539.36v-77.82s.07-132.39.07-132.39"/>
      <path class="cls-5" d="M752.15,329.16s.07,129.5.07,132.38v77.83c0,73.6-27.36,144.72-81.33,211.38-54.67,67.52-118.62,97.68-156.83,115.69l-2.54,1.2c-39.81,18.8-82.09,32.37-125.65,40.36l-4.09.75-4.09-.75c-43.56-7.98-85.84-21.56-125.66-40.36l-2.53-1.19c-38.21-18.02-102.16-48.17-156.84-115.7-53.97-66.66-81.34-137.78-81.34-211.38v-77.82s.07-132.39.07-132.39l-.04,129.95h-.02V79.42l7.56-2.67c50.54-17.85,102.76-32.28,155.23-42.88,68.08-13.74,137.88-21.32,207.45-22.52h.39c69.58,1.2,139.37,8.78,207.46,22.52,52.47,10.6,104.7,25.03,155.23,42.88l7.56,2.67v379.68h0"/>
      <path class="cls-6" d="M740.81,329.16s.06,129.5.06,132.38v77.82c0,70.94-26.51,139.65-78.8,204.24-53.04,65.51-115.53,94.97-152.86,112.58l-2.53,1.19c-38.93,18.38-80.27,31.65-122.86,39.46l-2.04.37-2.04-.37c-42.59-7.8-83.93-21.08-122.86-39.46l-2.53-1.19c-37.33-17.6-99.82-47.07-152.86-112.58-52.29-64.59-78.81-133.31-78.81-204.24v-77.82s.06-132.39.06-132.39v129.95h-.06V87.44c50.1-17.7,101.73-31.96,153.7-42.46,67.42-13.61,136.53-21.11,205.4-22.3,68.88,1.19,137.99,8.69,205.41,22.3,51.97,10.5,103.6,24.76,153.7,42.46v371.66h-.06"/>
      <path class="cls-6" d="M729.48,340.68c-4.89-1.95-153.47-62.44-347.73-62.44-185.27,0-340.19,58.66-347.68,62.42-.02.01-.03.01-.05.02v198.69c0,63.13,21.76,129.76,76.28,197.1,52.6,64.97,114.69,93.31,151.42,110.65,47.42,22.39,90.07,33.07,120.06,38.56,29.99-5.49,72.64-16.17,120.06-38.56,36.73-17.34,98.82-45.68,151.42-110.65,54.53-67.34,76.29-133.97,76.29-197.1,0,0-.05-164.23-.07-198.69Z"/>
      <path class="cls-4" d="M740.82,340.67v-7.68s-7.34-2.93-7.34-2.93c-16.12-6.47-162.95-63.17-351.73-63.17-97.66,0-186.13,16.38-243.16,30.12-59.21,14.26-100.33,29.32-108.71,33.08l-.17.06-7.03,3.5v205.71c0,70.93,26.51,139.65,78.81,204.23,53.04,65.51,115.52,94.97,152.85,112.57l2.54,1.2c38.95,18.39,80.29,31.67,122.86,39.46l2.04.37,2.04-.37c42.57-7.79,83.91-21.07,122.86-39.46l2.54-1.2c37.33-17.6,99.81-47.06,152.85-112.57,52.3-64.58,78.82-133.3,78.82-204.24,0,0-.05-164.23-.07-198.69ZM653.26,736.47c-52.6,64.97-114.69,93.31-151.42,110.65-47.42,22.39-90.07,33.07-120.06,38.56-29.99-5.49-72.64-16.17-120.06-38.56-36.73-17.34-98.82-45.68-151.42-110.65-54.52-67.34-76.28-133.97-76.28-197.1v-198.69s.03-.01.05-.02c7.49-3.76,162.41-62.42,347.68-62.42s342.84,60.49,347.73,62.44c.02,34.46.07,198.69.07,198.69,0,63.13-21.76,129.76-76.29,197.1Z"/>
      <g class="cls-7">
        <g>
          <g>
            <g>
              <polygon class="cls-2" points="264.87 637.16 124.4 754.33 105.82 732.06 219.59 637.16 264.87 637.16"/>
              <polygon class="cls-2" points="202.67 637.16 72.75 745.53 54.17 723.26 47.91 637.16 202.67 637.16"/>
              <polygon class="cls-2" points="301.05 637.16 139.22 772.15 130.39 762.58 280.75 637.16 301.05 637.16"/>
              <polygon class="cls-2" points="341.38 637.16 158.46 789.73 150.92 783.01 325.76 637.16 341.38 637.16"/>
              <rect class="cls-2" x="145.73" y="721.94" width="238.66" height="10" transform="translate(-404.13 338.51) rotate(-39.83)"/>
              <rect class="cls-2" x="159.73" y="743.36" width="238.66" height="8" transform="translate(-413.97 352.22) rotate(-39.83)"/>
              <rect class="cls-2" x="173.66" y="763.24" width="238.66" height="6" transform="translate(-422.83 365.52) rotate(-39.83)"/>
              <rect class="cls-2" x="191.05" y="779.62" width="238.66" height="4" transform="translate(-428.64 380.23) rotate(-39.83)"/>
              <rect class="cls-2" x="203.25" y="798.12" width="238.66" height="4" transform="translate(-437.66 392.34) rotate(-39.83)"/>
            </g>
            <g>
              <polygon class="cls-2" points="498.69 637.16 644.91 759.12 664.04 737.31 543.97 637.16 498.69 637.16"/>
              <polygon class="cls-2" points="560.89 637.16 690.81 745.53 709.39 723.26 718.16 637.16 560.89 637.16"/>
              <polygon class="cls-2" points="462.51 637.16 628.28 775.44 634.93 764.05 482.81 637.16 462.51 637.16"/>
              <polygon class="cls-2" points="422.18 637.16 607.79 791.98 613.94 784.09 437.8 637.16 422.18 637.16"/>
              <rect class="cls-2" x="493.5" y="607.61" width="10" height="238.66" transform="translate(-379.04 644.09) rotate(-50.17)"/>
              <rect class="cls-2" x="480.5" y="628.04" width="8" height="238.66" transform="translate(-399.76 640.68) rotate(-50.17)"/>
              <rect class="cls-2" x="467.58" y="646.91" width="6" height="238.66" transform="translate(-419.26 636.78) rotate(-50.17)"/>
              <rect class="cls-2" x="451.19" y="662.29" width="4" height="238.66" transform="translate(-437.32 628.95) rotate(-50.17)"/>
              <rect class="cls-2" x="438.98" y="680.79" width="4" height="238.66" transform="translate(-455.91 626.22) rotate(-50.17)"/>
            </g>
          </g>
          <circle class="cls-6" cx="381.78" cy="726.47" r="115.02"/>
        </g>
      </g>
      <circle class="cls-5" cx="381.78" cy="726.47" r="81.53"/>
      <g>
        <path class="cls-4" d="M172.05,77.2c-38.22,8.03-75.81,17.91-113.04,29.71-.83.26-1.4,1.03-1.4,1.91v30.62c0,1.35,1.32,2.3,2.6,1.89,11.3-3.64,22.66-7.08,34.07-10.34,1.28-.36,2.55.61,2.55,1.94v150.6c0,1.32,1.26,2.28,2.53,1.92,11.2-3.13,22.46-6.07,33.76-8.83.9-.22,1.53-1.03,1.53-1.95V121.94c0-.92.63-1.74,1.54-1.96,12.17-2.93,24.4-5.65,36.67-8.14.93-.19,1.6-1,1.6-1.95v-30.73c0-1.27-1.17-2.22-2.41-1.96Z"/>
        <path class="cls-4" d="M246.33,62c-36.34,5.17-58.45,34.35-58.32,70.56v70.97c-.89,36.04,23.3,59.08,58.32,54.76,35.85-4.43,58.84-31.09,58.65-67.25v-73.72c.24-34.89-22.55-60.45-58.65-55.32ZM246.33,223.47c-13.81,1.97-20.12-5.98-19.95-18.73v-81.1c-.02-13.3,5.94-24.94,19.95-26.82,13.25-1.77,21.17,8.75,20,21.55-.01.05-.01.1-.01.14v78.58c1,13.22-6.82,24.49-19.99,26.38Z"/>
        <path class="cls-4" d="M425.74,152.19c.07-.91.11-1.39.17-2.32.04-.57.42-1.06.96-1.26,13.92-5.29,20.15-19.17,19.05-34.58.27-35.64-21.17-58.65-57.44-58-18.87-.12-37.75.24-56.6,1.16-1.07.06-1.91.95-1.91,2.02v186.7c0,1.14.95,2.05,2.09,2,19.63-.83,39.23-1.22,58.89-1.15,35.36,1.1,58.84-12.04,58.84-47.72,0-21.57-7.79-38.18-23.2-45.41-.55-.26-.9-.83-.85-1.44ZM368.74,92.9c0-1.1.89-2,1.98-2.01,6.22-.07,9.92-.08,16.7-.05,14.18.04,20.77,12.16,19.75,25.3v.13c.1,11.56-.95,19.01-23.27,18.97-5.35-.01-8.34,0-13.14.05-1.11.01-2.02-.89-2.02-2.01v-40.38ZM390.95,211.94c-8.18-.07-12.6-.07-20.18.02-1.11,0-2.03-.89-2.03-2.01v-37.83c0-1.1.88-2,1.98-2.01,5.66-.06,9.08-.07,15.29-.05,18.84-.52,25.17,6.96,25.14,22.93,0,0,2.73,19.15-20.2,18.95Z"/>
        <path class="cls-4" d="M588.67,76.61c-10.83-2.18-21.7-4.19-32.59-6.02-1.01-.17-1.99.45-2.26,1.45-8.77,32.18-17.53,49.11-26.27,81.31-.16.59-.7.99-1.3.98-1.07-.01-1.39-.01-2.46-.02-.61,0-1.14-.42-1.29-1.01-8.86-35.03-17.74-54.77-26.67-89.77-.2-.81-.89-1.41-1.72-1.5-12.04-1.3-24.1-2.39-36.17-3.26-1.39-.11-2.45,1.22-2.06,2.55,16.1,54.8,32.08,93.02,47.95,147.88.05.19.08.38.08.58v42.28c0,1.02.76,1.87,1.76,1.99,11.51,1.37,23,2.93,34.45,4.68,1.21.18,2.3-.76,2.3-1.98v-41.71c0-.21.03-.42.1-.62,15.83-50.64,31.72-84.65,47.66-135.26.35-1.13-.35-2.33-1.51-2.56Z"/>
        <path class="cls-4" d="M704.56,262.8c-19.54-6.2-39.18-11.92-58.99-17.18-.88-.24-1.49-1.04-1.49-1.95V90.89c0-.91-.62-1.72-1.51-1.95-11.3-2.9-22.64-5.61-34.03-8.13-1.25-.28-2.44.68-2.44,1.96v186.61c0,.93.65,1.75,1.56,1.96,32.29,7.32,64.13,15.94,95.7,25.9,1.29.41,2.59-.55,2.59-1.89v-30.64c0-.87-.56-1.65-1.39-1.91Z"/>
      </g>
      <g>
        <rect class="cls-2" x="134.33" y="353.6" width="160.53" height="55.93" rx=".3" ry=".3"/>
        <rect class="cls-2" x="478.24" y="353.6" width="151" height="55.93" rx=".3" ry=".3"/>
        <rect class="cls-2" x="134.33" y="444.07" width="160.53" height="55.93" rx=".3" ry=".3"/>
        <rect class="cls-2" x="134.33" y="486.57" width="68.71" height="102.12" rx=".3" ry=".3"/>
        <path class="cls-2" d="M386.85,353.7l-77.04,90.28c-.05.05-.07.12-.07.19v51.35c0,.07.02.14.07.19l77.04,92.85c.06.07.14.11.23.11h83.06c.25,0,.39-.29.23-.49l-103.78-126.74c-.09-.11-.09-.27,0-.38l91.69-106.98c.17-.19.03-.49-.23-.49h-70.98c-.09,0-.17.04-.23.11Z"/>
        <path class="cls-2" d="M489.75,444.01v83.59c0,33.73,27.35,61.08,61.08,61.08h74.99c.17,0,.3-.13.3-.3v-55.8c0-.17-.13-.3-.3-.3h-62.95c-5.04,0-9.13-4.09-9.13-9.13v-79.14c0-.17-.13-.3-.3-.3h-63.39c-.17,0-.3.13-.3.3Z"/>
      </g>
      <g>
        <path d="M351.95,304.92l-12.45,4.46,1.47,4.33,6.23-2.24v20.35h5.13v-26.9h-.37Z"/>
        <path d="M376.8,309.82c-.87-1.57-2.08-2.78-3.61-3.63-1.53-.85-3.29-1.27-5.27-1.27s-3.64.39-5.12,1.15c-1.49.77-2.64,1.81-3.48,3.13-.82,1.31-1.24,2.78-1.24,4.41s.38,3.1,1.14,4.37c.76,1.28,1.8,2.27,3.12,3.01,1.32.72,2.81,1.09,4.46,1.09.96,0,1.85-.18,2.7-.55.85-.37,1.56-.86,2.16-1.48-.4,1-.92,1.94-1.59,2.84-.68.91-1.51,1.72-2.5,2.45-.99.73-2.15,1.34-3.46,1.84-1.32.5-2.82.86-4.48,1.07l1.9,4.14c2.33-.38,4.5-1.05,6.51-1.99,2.01-.96,3.76-2.17,5.28-3.63,1.51-1.47,2.68-3.15,3.52-5.05.84-1.9,1.26-3.99,1.26-6.24s-.44-4.08-1.32-5.65ZM371.94,315.74c-.41.63-.96,1.14-1.66,1.5-.7.36-1.48.54-2.36.54s-1.65-.18-2.34-.54c-.7-.36-1.25-.86-1.66-1.5-.41-.63-.62-1.34-.62-2.13s.2-1.53.59-2.15c.4-.63.94-1.11,1.64-1.48.7-.36,1.49-.54,2.38-.54s1.7.18,2.39.54c.69.37,1.24.86,1.64,1.48.4.62.6,1.33.6,2.15s-.21,1.51-.61,2.13Z"/>
        <path d="M401.41,318.87c-.78-1.28-1.85-2.27-3.2-3.01-1.35-.72-2.88-1.09-4.6-1.09-.99,0-1.93.18-2.8.54-.88.36-1.63.86-2.26,1.49.39-.95.92-1.84,1.61-2.68.68-.85,1.52-1.61,2.53-2.31,1-.69,2.17-1.28,3.51-1.75,1.34-.48,2.85-.81,4.55-1.01l-1.88-4.13c-2.36.36-4.56,1.02-6.6,1.97-2.04.95-3.82,2.14-5.34,3.59-1.52,1.45-2.71,3.11-3.57,4.98-.85,1.88-1.28,3.92-1.28,6.14s.44,4.15,1.34,5.76c.9,1.61,2.13,2.85,3.71,3.71,1.57.86,3.37,1.3,5.37,1.3,1.5,0,2.86-.23,4.08-.7,1.23-.46,2.29-1.11,3.19-1.94.9-.83,1.59-1.8,2.08-2.92.49-1.11.73-2.31.73-3.58,0-1.65-.4-3.1-1.18-4.37ZM396.73,325.73c-.42.66-.99,1.19-1.72,1.56-.72.38-1.56.58-2.5.58s-1.75-.2-2.49-.58c-.73-.38-1.31-.91-1.72-1.56s-.63-1.41-.63-2.26.21-1.59.64-2.26c.43-.67,1-1.19,1.73-1.57.73-.38,1.55-.57,2.46-.57s1.76.19,2.49.57c.72.39,1.3.91,1.73,1.57s.64,1.42.64,2.26-.21,1.61-.63,2.26Z"/>
        <path d="M406.02,305.48v4.97h11.87l-10.5,21.37h5.87l10.81-22.37v-3.97h-18.05Z"/>
      </g>
      <path class="cls-3" d="M463.84,719.32c-.93-10.75-4.01-21.31-8.99-30.89-1.04-2-2.15-3.94-3.35-5.84l-.21-.33c-11.6-18.2-30.2-31.33-51.15-36.1l-.09-.1h-.38c-5.82-1.29-11.84-1.95-17.88-1.95h-.02c-6.04,0-12.06.65-17.88,1.95h-.38l-.09.1c-20.95,4.77-39.55,17.9-51.15,36.1l-.21.33c-1.2,1.9-2.31,3.84-3.35,5.84-4.98,9.58-8.06,20.15-8.99,30.89-.2,2.3-.31,4.71-.31,7.15,0,18.79,6.16,36.47,17.8,51.14l.22.27c7.75,9.71,17.76,17.66,28.96,22.98l.21.1c11.03,5.23,22.87,7.87,35.16,7.87h.02c12.3,0,24.13-2.65,35.16-7.87l.21-.1c11.19-5.33,21.21-13.27,28.96-22.98l.22-.27c11.65-14.67,17.8-32.35,17.8-51.14,0-2.44-.11-4.85-.31-7.15ZM448.38,681.43l-10.82-3.07-27.42-19.53-8.02-10.15c18.72,4.9,35.34,16.67,46.26,32.75ZM382.77,669.65l26.54-9,26.83,19.12.75,26.74-26.77,8.42-27.35-19.86v-25.41ZM380.8,669.65v25.41l-27.35,19.86-26.77-8.42.75-26.74,26.83-19.12,26.54,9ZM361.44,648.68l-8.02,10.15-27.42,19.53-10.82,3.07c10.92-16.08,27.54-27.85,46.26-32.75ZM317.24,774.39c-10.37-13.92-15.84-30.42-15.84-47.92,0-1.37.03-2.74.1-4.07l5.63,8.58,10.16,32.39-.05,11.03ZM319.06,762.44l-9.94-31.71,16.9-22.36,26.81,8.44,10.42,32.08-18.66,21.73-25.54-8.18ZM381.78,806.86c-11.21,0-22.02-2.25-32.17-6.71l12.95-3.98h38.43l12.95,3.98c-10.15,4.46-20.96,6.71-32.17,6.71ZM400.65,794.19h-37.74l-16.73-22.39,18.65-21.7h33.89l18.65,21.7-16.73,22.39ZM444.5,762.44l-25.54,8.18-18.66-21.73,10.42-32.08,26.81-8.44,16.9,22.36-9.94,31.71ZM446.33,774.39l-.05-11.03,10.16-32.39,5.63-8.58c.07,1.33.1,2.7.1,4.07,0,17.5-5.46,34-15.84,47.92Z"/>
    </g>
  </g>
</svg>