<?xml version="1.0" encoding="UTF-8"?>
<svg id="Layer_2" data-name="Layer 2" xmlns="http://www.w3.org/2000/svg" xmlns:xlink="http://www.w3.org/1999/xlink" viewBox="0 0 458.14 552.16">
  <defs>
    <style>
      .cls-1 {
        fill: none;
      }

      .cls-2 {
        fill: #005d30;
      }

      .cls-3 {
        fill: #ffe100;
      }

      .cls-4 {
        fill: #060300;
      }

      .cls-5 {
        fill: #040201;
      }

      .cls-6 {
        fill: #020302;
      }

      .cls-7 {
        fill: #fff;
      }

      .cls-8 {
        fill: #fefefe;
      }

      .cls-9 {
        clip-path: url(#clippath);
      }
    </style>
    <clipPath id="clippath">
      <path class="cls-1" d="M228.76,533.08c-25.11-4.6-49.49-12.42-72.46-23.27l-1.53-.72c-22-10.38-58.83-27.74-89.92-66.14-30.62-37.82-46.15-77.97-46.15-119.33v-120.27l1.06-.52h.03c2.52-1.19,26.62-10.52,64.55-19.66,33.95-8.18,86.61-17.93,144.7-17.93,112.31,0,199.56,33.69,209.14,37.53l1.2.48v1.15c.01,20.68.04,119.21.04,119.21,0,41.36-15.53,81.51-46.15,119.33-31.09,38.4-67.92,55.76-89.92,66.14l-1.53.72c-22.97,10.85-47.35,18.68-72.46,23.27l-.31.06-.31-.06Z"/>
    </clipPath>
  </defs>
  <g id="Layer_2-2" data-name="Layer 2">
    <g>
      <path class="cls-6" d="M0,275.46H0V42.84l9.07-3.21c30.62-10.82,62.27-19.56,94.06-25.98C144.39,5.32,186.68.73,228.83,0h.23s.23,0,.23,0c42.16.73,84.45,5.32,125.7,13.65,31.79,6.42,63.44,15.17,94.06,25.98l9.07,3.21v232.62h-.07"/>
      <path class="cls-6" d="M458.09,197.49s.04,77.69.04,79.42v46.7c0,45.76-16.92,89.87-50.31,131.11-33.78,41.72-73.03,60.23-96.48,71.29l-1.52.72c-24.42,11.53-50.35,19.86-77.06,24.75l-3.68.67-3.68-.67c-26.72-4.9-52.65-13.22-77.07-24.76l-1.51-.71c-23.46-11.06-62.71-29.57-96.49-71.29C16.93,413.49,0,369.38,0,323.62v-46.69s.04-79.43.04-79.43"/>
      <path class="cls-7" d="M451.29,197.49s.04,77.7.04,79.43v46.7c0,44.16-16.42,86.83-48.8,126.83-32.8,40.51-71.17,58.61-94.1,69.42l-1.52.72c-23.89,11.28-49.25,19.42-75.39,24.21l-2.45.45-2.45-.45c-26.14-4.79-51.5-12.94-75.39-24.22l-1.52-.71c-22.93-10.81-61.3-28.9-94.1-69.42-32.38-40-48.8-82.67-48.8-126.83v-46.69s.04-79.43.04-79.43l-.03,77.97h-.01V47.65l4.54-1.6c30.32-10.71,61.66-19.37,93.14-25.73,40.85-8.25,82.73-12.79,124.47-13.51h.23c41.75.72,83.62,5.27,124.47,13.51,31.48,6.36,62.82,15.02,93.14,25.73l4.54,1.6v227.81h0"/>
      <path class="cls-2" d="M444.49,197.49s.04,77.7.04,79.43v46.69c0,42.56-15.9,83.79-47.28,122.55-31.82,39.31-69.32,56.98-91.72,67.55l-1.52.72c-23.36,11.03-48.16,18.99-73.72,23.67l-1.23.22-1.23-.22c-25.56-4.68-50.36-12.65-73.72-23.67l-1.52-.72c-22.4-10.56-59.89-28.24-91.72-67.55-31.38-38.75-47.29-79.98-47.29-122.55v-46.69s.04-79.43.04-79.43v77.97h-.04V52.46c30.06-10.62,61.04-19.18,92.22-25.48,40.45-8.17,81.92-12.67,123.24-13.38,41.33.71,82.79,5.21,123.24,13.38,31.18,6.3,62.16,14.86,92.22,25.48v223h-.04"/>
      <path class="cls-3" d="M437.69,204.41c-2.94-1.17-92.08-37.46-208.64-37.46-111.16,0-204.11,35.2-208.61,37.45-.01,0-.02,0-.03.01v119.21c0,37.88,13.06,77.86,45.77,118.26,31.56,38.98,68.81,55.99,90.85,66.39,28.45,13.43,54.04,19.84,72.04,23.14,17.99-3.29,43.58-9.7,72.04-23.14,22.04-10.4,59.29-27.41,90.85-66.39,32.72-40.4,45.77-80.38,45.77-118.26,0,0-.03-98.54-.04-119.21Z"/>
      <g class="cls-9">
        <g>
          <g>
            <g>
              <polygon class="cls-2" points="158.92 382.29 74.64 452.6 63.49 439.23 131.75 382.29 158.92 382.29"/>
              <polygon class="cls-2" points="121.6 382.29 43.65 447.32 32.5 433.95 28.75 382.29 121.6 382.29"/>
              <polygon class="cls-2" points="180.63 382.29 83.53 463.29 78.24 457.55 168.45 382.29 180.63 382.29"/>
              <polygon class="cls-2" points="204.83 382.29 95.08 473.84 90.55 469.8 195.46 382.29 204.83 382.29"/>
              <rect class="cls-2" x="87.44" y="433.16" width="143.19" height="6" transform="translate(-242.48 203.11) rotate(-39.83)"/>
              <rect class="cls-2" x="95.84" y="446.02" width="143.19" height="4.8" transform="translate(-248.38 211.33) rotate(-39.83)"/>
              <rect class="cls-2" x="104.19" y="457.95" width="143.19" height="3.6" transform="translate(-253.7 219.31) rotate(-39.83)"/>
              <rect class="cls-2" x="114.63" y="467.77" width="143.19" height="2.4" transform="translate(-257.19 228.14) rotate(-39.83)"/>
              <rect class="cls-2" x="121.95" y="478.87" width="143.19" height="2.4" transform="translate(-262.59 235.4) rotate(-39.83)"/>
            </g>
            <g>
              <polygon class="cls-2" points="299.22 382.29 386.94 455.47 398.43 442.39 326.38 382.29 299.22 382.29"/>
              <polygon class="cls-2" points="336.54 382.29 414.49 447.32 425.64 433.95 430.9 382.29 336.54 382.29"/>
              <polygon class="cls-2" points="277.51 382.29 376.97 465.26 380.96 458.43 289.69 382.29 277.51 382.29"/>
              <polygon class="cls-2" points="253.31 382.29 364.68 475.19 368.36 470.45 262.68 382.29 253.31 382.29"/>
              <rect class="cls-2" x="296.1" y="364.57" width="6" height="143.19" transform="translate(-227.42 386.45) rotate(-50.17)"/>
              <rect class="cls-2" x="288.3" y="376.82" width="4.8" height="143.19" transform="translate(-239.85 384.41) rotate(-50.17)"/>
              <rect class="cls-2" x="280.55" y="388.15" width="3.6" height="143.19" transform="translate(-251.56 382.07) rotate(-50.17)"/>
              <rect class="cls-2" x="270.71" y="397.38" width="2.4" height="143.19" transform="translate(-262.39 377.37) rotate(-50.17)"/>
              <rect class="cls-2" x="263.39" y="408.47" width="2.4" height="143.19" transform="translate(-273.55 375.73) rotate(-50.17)"/>
            </g>
          </g>
          <circle class="cls-3" cx="229.07" cy="435.88" r="69.01"/>
        </g>
      </g>
      <circle class="cls-7" cx="229.07" cy="435.88" r="48.92"/>
      <g>
        <path class="cls-8" d="M103.23,46.32c-22.93,4.82-45.49,10.75-67.82,17.83-.5.16-.84.62-.84,1.15v18.37c0,.81.79,1.38,1.56,1.13,6.78-2.18,13.6-4.25,20.44-6.2.77-.22,1.53.37,1.53,1.16v90.36c0,.79.76,1.37,1.52,1.15,6.72-1.88,13.48-3.64,20.26-5.3.54-.13.92-.62.92-1.17v-91.64c0-.55.38-1.04.92-1.18,7.3-1.76,14.64-3.39,22-4.88.56-.11.96-.6.96-1.17v-18.44c0-.76-.7-1.33-1.45-1.18Z"/>
        <path class="cls-8" d="M147.8,37.2c-21.8,3.1-35.07,20.61-34.99,42.34v42.58c-.53,21.62,13.98,35.45,34.99,32.86,21.51-2.66,35.3-18.65,35.19-40.35v-44.23c.14-20.93-13.53-36.27-35.19-33.19ZM147.8,134.08c-8.29,1.18-12.07-3.59-11.97-11.24v-48.66c-.01-7.98,3.56-14.96,11.97-16.09,7.95-1.06,12.7,5.25,12,12.93,0,.03,0,.06,0,.08v47.15c.6,7.93-4.09,14.69-11.99,15.83Z"/>
        <path class="cls-8" d="M255.44,91.32c.04-.55.06-.83.1-1.39.03-.34.25-.64.57-.76,8.35-3.17,12.09-11.5,11.43-20.75.16-21.38-12.7-35.19-34.46-34.8-11.32-.07-22.65.14-33.96.7-.64.04-1.15.57-1.15,1.21v112.02c0,.68.57,1.23,1.25,1.2,11.78-.5,23.54-.73,35.33-.69,21.22.66,35.3-7.22,35.3-28.63,0-12.94-4.67-22.91-13.92-27.24-.33-.16-.54-.5-.51-.86ZM221.25,55.74c0-.66.53-1.2,1.19-1.21,3.73-.04,5.95-.05,10.02-.03,8.51.02,12.46,7.3,11.85,15.18v.08c.06,6.94-.57,11.41-13.96,11.38-3.21,0-5,0-7.88.03-.67,0-1.21-.53-1.21-1.21v-24.23ZM234.57,127.17c-4.91-.04-7.56-.04-12.11.01-.67,0-1.22-.53-1.22-1.21v-22.7c0-.66.53-1.2,1.19-1.21,3.4-.04,5.45-.04,9.17-.03,11.3-.31,15.1,4.18,15.09,13.76,0,0,1.64,11.49-12.12,11.37Z"/>
        <path class="cls-8" d="M353.2,45.97c-6.5-1.31-13.02-2.51-19.55-3.61-.61-.1-1.19.27-1.36.87-5.26,19.31-10.52,29.47-15.76,48.79-.1.35-.42.59-.78.59-.64,0-.83,0-1.48-.01-.36,0-.68-.25-.77-.6-5.31-21.02-10.65-32.86-16-53.86-.12-.49-.53-.85-1.03-.9-7.22-.78-14.46-1.43-21.7-1.96-.83-.07-1.47.73-1.24,1.53,9.66,32.88,19.25,55.81,28.77,88.73.03.11.05.23.05.35v25.37c0,.61.46,1.12,1.06,1.19,6.91.82,13.8,1.76,20.67,2.81.73.11,1.38-.46,1.38-1.19v-25.03c0-.13.02-.25.06-.37,9.5-30.38,19.03-50.79,28.6-81.15.21-.68-.21-1.4-.91-1.54Z"/>
        <path class="cls-8" d="M422.74,157.68c-11.72-3.72-23.51-7.15-35.39-10.31-.53-.14-.89-.62-.89-1.17V54.54c0-.55-.37-1.03-.91-1.17-6.78-1.74-13.58-3.37-20.42-4.88-.75-.17-1.46.41-1.46,1.18v111.96c0,.56.39,1.05.94,1.18,19.37,4.39,38.48,9.56,57.42,15.54.77.25,1.55-.33,1.55-1.13v-18.38c0-.52-.34-.99-.83-1.15Z"/>
      </g>
      <g>
        <rect class="cls-2" x="80.6" y="212.16" width="96.32" height="33.56" rx=".18" ry=".18"/>
        <rect class="cls-4" x="286.94" y="212.16" width="90.6" height="33.56" rx=".18" ry=".18"/>
        <rect class="cls-4" x="80.6" y="266.44" width="96.32" height="33.56" rx=".18" ry=".18"/>
        <rect class="cls-4" x="80.6" y="291.94" width="41.22" height="61.27" rx=".18" ry=".18"/>
        <path class="cls-4" d="M232.11,212.22l-46.22,54.17s-.04.07-.04.12v30.81s.01.08.04.11l46.23,55.71s.08.06.14.06h49.84c.15,0,.24-.18.14-.29l-62.27-76.04c-.06-.07-.05-.16,0-.23l55.02-64.19c.1-.12.02-.3-.14-.3h-42.59c-.05,0-.1.02-.14.06Z"/>
        <path class="cls-4" d="M293.85,266.41v50.15c0,20.24,16.41,36.65,36.65,36.65h44.99c.1,0,.18-.08.18-.18v-33.48c0-.1-.08-.18-.18-.18h-37.77c-3.03,0-5.48-2.45-5.48-5.48v-47.48c0-.1-.08-.18-.18-.18h-38.03c-.1,0-.18.08-.18.18Z"/>
      </g>
      <g>
        <path d="M211.17,182.95l-7.47,2.67.88,2.6,3.74-1.34v12.21h3.08v-16.14h-.22Z"/>
        <path d="M226.08,185.89c-.52-.94-1.25-1.67-2.16-2.18-.92-.51-1.97-.76-3.16-.76s-2.18.23-3.07.69c-.89.46-1.59,1.09-2.09,1.88-.49.79-.75,1.67-.75,2.64s.23,1.86.69,2.62c.45.77,1.08,1.36,1.87,1.8.79.43,1.68.65,2.68.65.57,0,1.11-.11,1.62-.33.51-.22.94-.52,1.29-.89-.24.6-.55,1.17-.95,1.7-.41.54-.9,1.03-1.5,1.47-.59.44-1.29.81-2.08,1.11-.79.3-1.69.51-2.69.64l1.14,2.49c1.4-.23,2.7-.63,3.9-1.2,1.21-.57,2.26-1.3,3.17-2.18.9-.88,1.61-1.89,2.11-3.03.5-1.14.76-2.39.76-3.75s-.26-2.45-.79-3.39ZM223.16,189.44c-.25.38-.58.68-.99.9-.42.22-.89.33-1.42.33s-.99-.11-1.4-.33c-.42-.22-.75-.52-.99-.9-.25-.38-.37-.81-.37-1.28s.12-.92.36-1.29c.24-.38.56-.67.98-.89.42-.22.89-.33,1.43-.33s1.02.11,1.43.33c.42.22.74.51.98.89.24.37.36.8.36,1.29s-.12.9-.37,1.28Z"/>
        <path d="M240.85,191.32c-.47-.77-1.11-1.36-1.92-1.8-.81-.43-1.73-.65-2.76-.65-.59,0-1.16.11-1.68.33-.53.22-.98.51-1.35.89.23-.57.55-1.1.96-1.61.41-.51.91-.97,1.52-1.39.6-.41,1.3-.77,2.1-1.05.81-.29,1.71-.48,2.73-.61l-1.13-2.48c-1.42.22-2.74.61-3.96,1.18-1.23.57-2.29,1.28-3.21,2.15-.91.87-1.63,1.87-2.14,2.99-.51,1.13-.77,2.35-.77,3.69s.27,2.49.81,3.46c.54.97,1.28,1.71,2.22,2.23.94.52,2.02.78,3.22.78.9,0,1.71-.14,2.45-.42.74-.28,1.37-.67,1.91-1.17.54-.5.95-1.08,1.25-1.75.29-.67.44-1.38.44-2.15,0-.99-.24-1.86-.71-2.62ZM238.04,195.44c-.25.4-.59.71-1.03.94-.43.23-.93.35-1.5.35s-1.05-.12-1.49-.35c-.44-.23-.79-.54-1.03-.94s-.38-.84-.38-1.36.13-.95.39-1.35c.26-.4.6-.71,1.04-.94.44-.23.93-.34,1.48-.34s1.06.11,1.49.34c.43.23.78.54,1.04.94s.39.85.39,1.35-.13.96-.38,1.36Z"/>
        <path d="M243.61,183.29v2.98h7.12l-6.3,12.82h3.52l6.49-13.42v-2.38h-10.83Z"/>
      </g>
      <path class="cls-5" d="M278.3,431.59c-.56-6.45-2.41-12.79-5.39-18.54-.62-1.2-1.29-2.37-2.01-3.5l-.12-.2c-6.96-10.92-18.12-18.8-30.69-21.66l-.05-.06h-.23c-3.49-.78-7.11-1.17-10.73-1.17h-.01c-3.62,0-7.24.39-10.73,1.17h-.23l-.05.06c-12.57,2.86-23.73,10.74-30.69,21.66l-.12.2c-.72,1.14-1.39,2.31-2.01,3.5-2.99,5.75-4.84,12.09-5.39,18.54-.12,1.38-.18,2.83-.18,4.29,0,11.28,3.69,21.88,10.68,30.68l.13.16c4.65,5.83,10.66,10.59,17.38,13.79l.12.06c6.62,3.14,13.72,4.72,21.1,4.72h.01c7.38,0,14.48-1.59,21.1-4.72l.12-.06c6.72-3.2,12.73-7.96,17.38-13.79l.13-.16c6.99-8.8,10.68-19.41,10.68-30.68,0-1.46-.07-2.91-.18-4.29ZM269.03,408.86l-6.49-1.84-16.45-11.72-4.81-6.09c11.23,2.94,21.2,10,27.75,19.65ZM229.66,401.79l15.92-5.4,16.1,11.47.45,16.04-16.06,5.05-16.41-11.92v-15.25ZM228.48,401.79v15.25l-16.41,11.92-16.06-5.05.45-16.04,16.1-11.47,15.92,5.4ZM216.86,389.21l-4.81,6.09-16.45,11.72-6.49,1.84c6.55-9.65,16.52-16.71,27.75-19.65ZM190.34,464.63c-6.22-8.35-9.5-18.25-9.5-28.75,0-.82.02-1.64.06-2.44l3.38,5.15,6.09,19.43-.03,6.62ZM191.44,457.46l-5.96-19.02,10.14-13.42,16.09,5.06,6.25,19.25-11.2,13.04-15.32-4.91ZM229.07,484.11c-6.73,0-13.21-1.35-19.3-4.02l7.77-2.39h23.06l7.77,2.39c-6.09,2.67-12.57,4.02-19.3,4.02ZM240.39,476.51h-22.65l-10.04-13.43,11.19-13.02h20.33l11.19,13.02-10.04,13.43ZM266.7,457.46l-15.32,4.91-11.2-13.04,6.25-19.25,16.09-5.06,10.14,13.42-5.96,19.02ZM267.8,464.63l-.03-6.62,6.09-19.43,3.38-5.15c.04.8.06,1.62.06,2.44,0,10.5-3.28,20.4-9.5,28.75Z"/>
    </g>
  </g>
</svg>