<svg width="96" height="28" viewBox="0 0 96 28" fill="none" xmlns="http://www.w3.org/2000/svg">
<g clip-path="url(#clip0_1827_3476)">
<path d="M73.274 1.63281H54.2607V4.51752H73.274V1.63281Z" fill="white"/>
<path d="M65.1878 7.2334H62.3477V26.3812H65.1878V7.2334Z" fill="white"/>
<path d="M78.5044 26.3818L79.7365 23.4318H91.5454L83.8903 6.08694L74.9038 26.3818H71.7529L82.7816 1.63281H84.9714L96.0001 26.3818H78.5044Z" fill="white"/>
<path d="M28.7393 21V7L40.4126 0L52.086 7V21L40.4126 28L28.7404 21H28.7393ZM31.522 8.66901V19.3321L40.4126 24.6631L49.3032 19.3321V8.66901L40.4126 3.33688L31.522 8.66901Z" fill="white"/>
<path d="M0 26.375L9.59151 16.6104L10.1944 17.3476C10.3685 17.5606 10.5525 17.7849 10.7388 18.0093L11.1995 18.5668L6.34034 23.5887H16.9832C17.5299 23.5887 18.0269 23.3059 18.3113 22.8309C18.5868 22.3707 18.5692 21.8739 18.2639 21.5007L7.62758 8.50006C6.67538 7.33587 6.64672 5.60504 7.55485 4.09286C8.46848 2.57038 10.0676 1.62598 11.7285 1.62598H27.4432L18.2573 11.0791L16.5766 9.20063L21.4886 4.41109H11.1906C10.6429 4.41109 10.147 4.69384 9.86263 5.1689C9.75903 5.34061 9.45706 5.94503 9.91002 6.49908L20.5463 19.4997C21.4985 20.6639 21.5272 22.3947 20.6191 23.9069C19.7054 25.4294 18.1063 26.3738 16.4454 26.3738H0V26.375Z" fill="white"/>
</g>
<defs>
<clipPath id="clip0_1827_3476">
<rect width="96" height="28" fill="white"/>
</clipPath>
</defs>
</svg>
