<svg width="55" height="55" viewBox="0 0 55 55" fill="none" xmlns="http://www.w3.org/2000/svg">
<g id="Layer_1" clip-path="url(#clip0_27_19520)">
<path id="Vector" fill-rule="evenodd" clip-rule="evenodd" d="M36.1553 41.6481C35.8661 41.5517 35.5286 41.4553 35.2394 41.3589C35.0466 41.4071 34.661 41.4553 34.0825 41.5517C33.1667 41.6481 32.2026 43.3352 29.7442 43.7691C27.9607 44.1065 26.7074 43.9619 26.2254 43.7208L25.9844 43.9619C25.647 44.2511 25.4059 44.3475 25.3577 44.5885C25.3095 44.8295 25.5505 44.9741 25.8398 44.9741C26.1772 44.9741 26.5628 44.6849 26.5628 44.6849C26.5628 44.6849 26.611 44.9259 26.9002 44.9259C27.1895 44.9259 27.7197 44.7331 27.7197 44.7331C27.7197 44.7331 28.1535 44.9259 28.4909 44.8777C28.8284 44.8295 29.1176 44.6367 29.1176 44.6367C29.1176 44.6367 29.214 45.0223 29.5514 45.0223C29.8888 45.0223 30.4191 44.5885 30.4191 44.5885C30.4191 44.5885 30.6601 44.8777 30.9493 44.8295C31.2385 44.8295 31.6242 44.4439 31.6242 44.4439C31.6242 44.4439 32.0098 44.5885 32.3472 44.4921C32.6846 44.3957 33.0221 44.0101 33.0221 44.0101C33.0221 44.0101 33.3595 44.2511 33.6487 44.1547C33.9379 44.0583 34.1307 43.6726 34.1307 43.6726C34.1307 43.6726 34.902 43.9619 35.4322 43.6726C35.8179 43.4798 35.6732 42.9496 35.6732 42.9496C35.6732 42.9496 37.7942 43.2388 37.6978 41.8409C37.6978 41.8409 37.3604 41.7927 36.8301 41.7445C36.5891 41.7445 36.3963 41.7445 36.2035 41.5999" fill="white"/>
<path id="Vector_2" fill-rule="evenodd" clip-rule="evenodd" d="M44.7339 30.7054C44.3483 30.2716 42.0345 33.1156 41.9381 32.5371C41.9381 32.3443 45.6016 28.1506 44.8785 26.8491C44.6857 26.5117 41.9381 31.8623 41.5525 31.4284C41.4561 31.2838 43.8662 26.1261 43.4806 25.644H43.3842C43.3842 25.644 42.854 26.3671 42.4684 27.1865C42.0345 28.1506 41.6007 29.1629 41.5043 29.3075C41.4079 29.4521 41.6007 27.283 41.5043 26.6563C41.5043 26.3671 41.1669 26.5117 41.1669 26.5117C40.8294 33.1638 34.3702 38.2251 29.2124 38.9964C27.8627 39.1892 27.4289 39.8158 25.9828 40.6835C25.5008 40.9727 24.7295 41.1173 24.0547 41.4547C23.3798 41.8404 22.946 42.3706 22.705 42.708C22.6086 42.8526 22.8014 43.5275 22.8978 43.4311C22.9942 43.3347 23.0424 43.0936 23.187 42.9972C23.3316 42.9008 23.9101 42.949 23.9101 42.949L25.9346 43.0936C25.9346 43.0936 25.9828 43.0936 26.1274 43.0936H26.4648C27.6217 43.1901 30.4657 43.1901 31.8154 42.0332C32.6349 41.2619 32.7795 40.8763 34.081 40.8281L35.4307 40.6353C35.4307 40.6353 35.8163 40.5389 35.9609 40.4425H36.0573C36.4429 40.105 36.925 39.9122 37.407 39.8158C37.7926 39.7194 38.2747 39.5748 38.9013 39.382C40.3956 38.9 38.5157 38.9 38.8049 38.6589C39.0941 38.4661 40.3956 38.5625 40.4438 38.2733C40.492 37.9359 39.7208 38.0323 39.7208 37.8877C39.7208 37.6949 41.3115 37.6949 41.3597 37.3092C41.3597 37.0682 40.4438 37.261 40.6848 36.9718C40.9258 36.6826 42.1791 36.6344 42.1791 36.1042C42.1791 35.7667 41.1669 36.2006 41.3115 35.9114C41.3597 35.8149 41.7935 35.7185 42.1791 35.3811C42.8058 34.9473 43.8662 34.1278 43.7698 33.694C43.6734 33.1638 41.6489 34.9955 41.7935 34.2724C41.8417 34.0314 45.1677 31.3802 44.5893 30.7536" fill="white"/>
<path id="Vector_3" fill-rule="evenodd" clip-rule="evenodd" d="M23.4763 40.7321C25.5008 40.4911 26.3685 39.4306 26.6577 38.9486H26.4649C19.138 38.563 13.9802 32.6822 13.45 26.7532C13.45 26.7532 13.1608 26.6568 13.1126 26.8978C13.0162 27.5726 13.3054 29.549 13.209 29.4526C13.0162 29.2115 11.5219 25.4517 11.2809 25.8373C10.9434 26.3675 12.9198 30.6576 12.8234 30.8022C12.4377 31.2843 10.124 26.6568 9.97936 26.9942C9.30452 28.2957 12.8234 32.4894 12.7752 32.6822C12.727 33.2606 10.124 30.4166 9.93116 30.754C9.44913 31.4289 12.727 33.8873 12.8716 34.0801C13.3536 34.6585 11.088 33.0678 11.0398 33.6462C10.9916 34.0801 12.1485 34.9959 12.8716 35.3816C13.5464 35.7672 13.7874 35.6226 13.9802 35.96C14.1248 36.201 12.6788 35.8154 12.727 36.1528C12.8234 36.7795 14.3177 36.6348 14.5587 36.8759C14.7997 37.1651 13.5464 36.9723 13.5946 37.1651C13.691 37.5507 14.9443 37.5989 14.9925 37.7917C14.9925 37.9845 14.1731 37.8399 14.2213 38.1774C14.2213 38.4666 15.5227 38.3702 15.812 38.563C16.1012 38.7558 14.7033 38.563 15.812 39.1414C16.9206 39.6717 18.2221 40.2501 19.9575 40.5875C20.4395 40.6839 22.0302 40.7803 23.5245 40.7321" fill="white"/>
<path id="Vector_4" d="M37.1656 22.9936C37.1656 28.3441 32.8273 32.6824 27.4767 32.6824C22.1261 32.6824 17.7878 28.3441 17.7878 22.9936C17.7878 17.643 22.1261 13.3047 27.4767 13.3047C32.8273 13.3047 37.1656 17.643 37.1656 22.9936ZM35.6713 23.4756C35.6713 23.4756 36.0087 23.0418 36.2979 22.6561C36.2015 21.1136 35.7195 19.5229 34.8518 18.2214C34.418 18.0286 33.8878 17.884 33.8878 17.884L33.9842 20.969L35.7195 23.5238L35.6713 23.4756ZM29.5977 30.8989C29.5977 30.8989 30.1279 31.0917 30.5617 31.2363C32.0078 30.6579 33.3575 29.6938 34.3216 28.4887C34.3216 28.0067 34.3216 27.4765 34.3216 27.4765L31.4294 28.4887L29.5495 30.9471L29.5977 30.8989ZM20.6318 27.4283C20.6318 27.4283 20.6318 28.0067 20.6318 28.4405C21.5959 29.6456 22.9456 30.6579 24.4399 31.1881C24.8737 31.0435 25.404 30.8507 25.404 30.8507L23.524 28.3923L20.6318 27.3801V27.4283ZM21.1621 17.8358C21.1621 17.8358 20.6318 17.9804 20.198 18.1732C19.3303 19.4747 18.8483 21.0654 18.7519 22.6079C18.9929 22.9936 19.3786 23.4274 19.3786 23.4274L21.1139 20.8726L21.2103 17.7876L21.1621 17.8358ZM30.4171 15.3774C30.4171 15.3774 30.0797 14.8954 29.7905 14.558C28.2962 14.1241 26.6091 14.1241 25.1147 14.558C24.8255 14.9436 24.4881 15.3774 24.4881 15.3774L27.4285 16.2451L30.3689 15.3774H30.4171ZM30.6099 27.2837C30.8991 27.6211 31.333 27.8621 31.815 27.7175C32.3934 27.5729 33.3575 27.2837 33.6467 27.2355C34.0324 27.139 34.4662 26.8016 34.5144 26.3678C34.5144 26.1268 34.5144 25.8858 34.2734 25.5965C34.0806 25.3073 33.7913 25.1145 33.4057 24.9217C33.7913 24.9699 34.177 24.9699 34.5144 24.9217C34.8036 24.8253 35.0446 24.6325 35.141 24.4397C35.3339 24.054 35.1892 23.5238 34.9482 23.2346C34.7554 22.9936 34.1288 22.2223 33.7913 21.7403C33.4539 21.3546 32.9719 21.2582 32.5381 21.4028C32.9719 21.2582 33.3093 20.9208 33.3575 20.3906C33.3575 19.8121 33.4057 18.7999 33.4539 18.5106C33.4539 18.0768 33.2611 17.5948 32.8755 17.402C32.6827 17.3056 32.3934 17.3056 32.1042 17.402C31.7668 17.4984 31.4776 17.7394 31.1884 18.0286C31.3812 17.6912 31.4776 17.3056 31.4776 16.9681C31.4776 16.6307 31.3812 16.3897 31.1884 16.2451C30.8991 15.9077 30.3689 15.9077 29.9833 16.0523C29.6941 16.1487 28.7782 16.5343 28.1998 16.7271C27.7177 16.9199 27.5249 17.3538 27.5249 17.7876C27.5249 17.3538 27.2839 16.8717 26.8019 16.7271C26.2716 16.5343 25.3076 16.1487 25.0665 16.0523C24.6809 15.9077 24.1507 15.9559 23.8615 16.2451C23.6686 16.4379 23.5722 16.6789 23.5722 16.9681C23.5722 17.3056 23.6686 17.6912 23.8615 18.0286C23.6204 17.7394 23.283 17.4984 22.9456 17.402C22.6564 17.3056 22.3672 17.3056 22.1261 17.402C21.7405 17.5948 21.5477 18.0768 21.5477 18.5106C21.5477 18.7999 21.5959 19.8121 21.6441 20.3906C21.6441 20.8726 22.0297 21.2582 22.4636 21.4028C22.0297 21.2582 21.5477 21.3546 21.2103 21.7403C20.8247 22.1741 20.2462 22.9936 20.0534 23.2346C19.8124 23.572 19.6678 24.054 19.8606 24.4397C19.957 24.6325 20.198 24.8253 20.4872 24.9217C20.8247 25.0181 21.2103 25.0181 21.5959 24.9217C21.2585 25.0663 20.9211 25.3073 20.7282 25.5965C20.5354 25.8376 20.4872 26.1268 20.4872 26.3678C20.5354 26.8016 20.9693 27.139 21.3549 27.2355C21.6441 27.3319 22.6082 27.5729 23.1866 27.7175C23.6686 27.8621 24.1025 27.6211 24.3917 27.2837C24.1025 27.6211 24.0543 28.1513 24.3435 28.5369C24.6809 29.019 25.2112 29.8384 25.3558 30.1276C25.5968 30.4651 26.0306 30.7543 26.4644 30.7061C26.7055 30.7061 26.9465 30.5133 27.1393 30.2723C27.3321 29.983 27.4767 29.6456 27.5249 29.26C27.5249 29.6456 27.6695 29.983 27.9105 30.2723C28.1034 30.5133 28.3444 30.7061 28.5854 30.7061C29.0192 30.7543 29.453 30.4651 29.6941 30.1276C29.8387 29.8866 30.4171 29.0672 30.7063 28.5369C30.9956 28.1513 30.8991 27.6211 30.6581 27.2837H30.6099ZM24.3435 21.9331L27.4285 19.5229C27.4285 19.1373 27.3803 18.6071 27.3803 18.125C27.3803 17.4984 27.0911 17.2574 26.4644 16.9681C24.7291 16.3415 24.4881 16.2933 24.2953 17.0645C24.1507 18.1732 25.4522 17.7394 25.404 17.7876C25.0665 18.0286 24.9701 18.125 24.4399 17.9804C26.5126 20.1978 26.2234 17.6912 26.3198 17.7876C26.6573 18.1732 26.5608 20.1978 24.9219 19.1855C24.7291 19.0409 24.5363 18.8963 24.3435 18.6553C24.4881 18.8963 24.5845 19.1373 24.6327 19.3783C25.1147 21.21 23.1384 20.6798 22.8974 20.246C22.801 20.1014 25.1147 21.21 23.6686 18.5106C23.6204 19.0409 23.524 19.0891 23.1866 19.3783C23.1384 19.3783 23.9579 18.3178 22.8492 18.125C22.0779 18.0768 22.0297 18.2696 22.0779 20.1496C22.1261 20.8726 22.2708 21.21 22.8974 21.4028C23.4276 21.5475 23.9097 21.7885 24.3435 21.9331ZM25.5004 25.6929L24.2953 22.0295C23.8615 21.9331 23.3312 21.7885 22.8492 21.5957C22.2708 21.4028 21.9333 21.5957 21.4513 22.1259C20.2944 23.6202 20.198 23.813 20.8729 24.1986C21.8851 24.6807 21.8851 23.2828 21.8851 23.3792C22.0297 23.7648 22.0297 23.9094 21.7887 24.3433C24.5363 23.0418 22.0297 22.5597 22.1743 22.5115C22.6564 22.3187 24.5363 23.0418 23.0902 24.2468C22.8974 24.3915 22.7046 24.5361 22.4154 24.6325C22.7046 24.5843 22.9456 24.5361 23.1866 24.5843C25.1147 24.6807 24.0061 26.416 23.4758 26.5124C23.3312 26.5124 25.0665 24.6807 22.0779 25.2591C22.56 25.5001 22.6082 25.5965 22.7528 25.9822C22.7528 26.0304 21.9815 24.9217 21.4513 25.8858C21.1621 26.6088 21.3067 26.7052 23.1384 27.2355C23.8133 27.3801 24.1989 27.3801 24.5845 26.8498C24.9219 26.416 25.2594 25.9822 25.5486 25.6447L25.5004 25.6929ZM29.4048 25.7411C28.1034 25.7894 26.8501 25.7894 25.5968 25.7411C25.3558 26.0786 25.0665 26.5606 24.7291 26.9944C24.3435 27.5247 24.4399 27.8621 24.7773 28.4887C25.8378 30.0312 25.9824 30.1759 26.6091 29.6456C27.3803 28.8262 26.0788 28.3923 26.127 28.3923C26.5608 28.3923 26.6573 28.3923 26.9947 28.778C26.6091 25.7893 25.3558 28.0067 25.3558 27.8139C25.3076 27.3319 26.5608 25.7411 27.2839 27.5247C27.3803 27.7175 27.4285 28.0067 27.4767 28.2477C27.4767 27.9585 27.5731 27.7175 27.6695 27.5247C28.3926 25.7411 29.6459 27.3319 29.5977 27.8139C29.5977 27.9585 28.3444 25.7411 27.9587 28.778C28.2962 28.3923 28.4408 28.3923 28.8264 28.3923C28.8746 28.3923 27.5731 28.8262 28.3444 29.6456C28.9228 30.1759 29.1156 30.0312 30.1761 28.4887C30.5135 27.8621 30.6099 27.5247 30.2243 26.9944C29.8869 26.5606 29.5977 26.0786 29.3566 25.7411H29.4048ZM30.6581 22.0295L29.453 25.6929C29.7423 26.0304 30.0797 26.4642 30.4171 26.898C30.8027 27.4283 31.1884 27.4283 31.8632 27.2837C33.6467 26.7534 33.8396 26.657 33.5503 25.934C33.0201 24.9699 32.2006 26.0786 32.2488 26.0304C32.3935 25.5965 32.4417 25.5001 32.9237 25.3073C29.9351 24.7771 31.6704 26.6088 31.5258 26.5606C31.0438 26.4642 29.9351 24.7289 31.815 24.6325C32.056 24.6325 32.297 24.6325 32.5863 24.6807C32.3452 24.5843 32.1042 24.4397 31.9114 24.295C30.4171 23.09 32.3452 22.3669 32.8273 22.5597C32.9719 22.6079 30.4653 23.09 33.2129 24.3915C32.9237 23.9094 32.9719 23.813 33.1165 23.4274C33.1165 23.3792 33.1165 24.7289 34.1288 24.2468C34.8036 23.813 34.7072 23.6202 33.5503 22.1741C33.0683 21.6439 32.7791 21.451 32.1524 21.6439C31.6222 21.7885 31.092 21.9331 30.7063 22.0777L30.6581 22.0295ZM27.5249 19.5229L30.6099 21.9331C30.9956 21.7885 31.5258 21.5957 32.056 21.4028C32.6827 21.21 32.7791 20.8726 32.8755 20.1496C32.9237 18.2696 32.8755 18.0768 32.1042 18.125C30.9956 18.3178 31.815 19.4265 31.7668 19.3783C31.4294 19.1373 31.333 19.0409 31.2848 18.5106C29.8387 21.1618 32.1524 20.1014 32.056 20.246C31.815 20.6798 29.8387 21.21 30.3207 19.3783C30.3689 19.1373 30.4653 18.8963 30.6099 18.6553C30.4171 18.8481 30.2243 19.0409 30.0315 19.1855C28.3926 20.1978 28.2962 18.1732 28.6336 17.7876C28.73 17.6912 28.4408 20.1978 30.5135 17.9804C29.9833 18.0768 29.8869 18.0286 29.5495 17.7876C29.5013 17.7876 30.8027 18.1732 30.6581 17.0645C30.4653 16.2933 30.2725 16.2933 28.489 16.9681C27.8623 17.2574 27.5731 17.4984 27.5731 18.125C27.5731 18.6071 27.5731 19.0891 27.5731 19.5229H27.5249Z" fill="white"/>
<path id="Vector_5" fill-rule="evenodd" clip-rule="evenodd" d="M27.4263 12.6302C28.0529 12.6302 28.2939 12.2446 28.2939 11.7625C28.2939 11.1359 27.4263 8.77393 27.4263 8.77393C27.4263 8.77393 26.5586 11.1359 26.5586 11.7625C26.5586 12.2446 26.7996 12.6302 27.4263 12.6302Z" fill="white"/>
<path id="Vector_6" fill-rule="evenodd" clip-rule="evenodd" d="M23.8601 13.2564C24.4385 13.0153 24.5349 12.5815 24.3903 12.1477C24.1975 11.5692 22.5586 9.64111 22.5586 9.64111C22.5586 9.64111 22.5586 12.1477 22.7514 12.7261C22.896 13.16 23.2816 13.4492 23.8601 13.2564Z" fill="white"/>
<path id="Vector_7" fill-rule="evenodd" clip-rule="evenodd" d="M20.7746 15.0877C21.2567 14.6539 21.1603 14.2201 20.871 13.8344C20.4854 13.3524 18.2681 12.0991 18.2681 12.0991C18.2681 12.0991 19.0875 14.4611 19.5214 14.9431C19.8106 15.2805 20.2926 15.4734 20.7746 15.0395" fill="white"/>
<path id="Vector_8" fill-rule="evenodd" clip-rule="evenodd" d="M18.4638 17.8358C18.7531 17.3056 18.5602 16.8718 18.1264 16.6308C17.5962 16.2933 15.0896 15.9077 15.0896 15.9077C15.0896 15.9077 16.6803 17.8358 17.2105 18.1733C17.5962 18.4143 18.0782 18.4143 18.4156 17.8358" fill="white"/>
<path id="Vector_9" fill-rule="evenodd" clip-rule="evenodd" d="M17.2548 21.2577C17.3512 20.6311 17.0138 20.3418 16.5318 20.2454C15.9051 20.149 13.4468 20.5828 13.4468 20.5828C13.4468 20.5828 15.6159 21.8361 16.2426 21.9807C16.7246 22.0772 17.1584 21.8843 17.2548 21.2577Z" fill="white"/>
<path id="Vector_10" fill-rule="evenodd" clip-rule="evenodd" d="M17.2548 24.8732C17.1584 24.2465 16.6764 24.1019 16.2426 24.1501C15.6159 24.2465 13.4468 25.548 13.4468 25.548C13.4468 25.548 15.9051 25.9819 16.5318 25.8855C17.0138 25.7891 17.3512 25.4998 17.2548 24.8732Z" fill="white"/>
<path id="Vector_11" fill-rule="evenodd" clip-rule="evenodd" d="M18.5104 28.2477C18.1729 27.7174 17.7391 27.7174 17.3053 27.9103C16.775 28.2477 15.1843 30.1758 15.1843 30.1758C15.1843 30.1758 17.6427 29.742 18.2211 29.4528C18.6068 29.2118 18.8478 28.8261 18.5586 28.2477" fill="white"/>
<path id="Vector_12" fill-rule="evenodd" clip-rule="evenodd" d="M20.8252 30.994C20.3431 30.6083 19.9093 30.7529 19.5719 31.0904C19.1863 31.5724 18.3186 33.9344 18.3186 33.9344C18.3186 33.9344 20.4878 32.6811 20.9216 32.199C21.2108 31.8134 21.3072 31.3796 20.8252 30.9458" fill="white"/>
<path id="Vector_13" fill-rule="evenodd" clip-rule="evenodd" d="M23.9587 32.7772C23.3803 32.5844 22.9947 32.8736 22.8501 33.3074C22.6091 33.8859 22.6573 36.3924 22.6573 36.3924C22.6573 36.3924 24.2962 34.4643 24.489 33.8859C24.6336 33.452 24.5854 32.97 23.9587 32.7772Z" fill="white"/>
<path id="Vector_14" fill-rule="evenodd" clip-rule="evenodd" d="M27.5273 33.4053C26.9007 33.4053 26.6597 33.7909 26.6597 34.2729C26.6597 34.8996 27.5273 37.2615 27.5273 37.2615C27.5273 37.2615 28.395 34.8996 28.395 34.2729C28.395 33.7909 28.154 33.4053 27.5273 33.4053Z" fill="white"/>
<path id="Vector_15" fill-rule="evenodd" clip-rule="evenodd" d="M31.0914 32.7298C30.513 32.9708 30.4166 33.4047 30.5612 33.8385C30.8022 34.4169 32.3929 36.3451 32.3929 36.3451C32.3929 36.3451 32.3929 33.8385 32.2001 33.2601C32.0555 32.8262 31.6698 32.537 31.0914 32.7298Z" fill="white"/>
<path id="Vector_16" fill-rule="evenodd" clip-rule="evenodd" d="M34.1753 30.9472C33.6933 31.3811 33.7897 31.8149 34.0789 32.2005C34.4645 32.6826 36.6819 33.9359 36.6819 33.9359C36.6819 33.9359 35.8624 31.5739 35.4286 31.0919C35.1394 30.7544 34.6573 30.5616 34.1753 30.9954" fill="white"/>
<path id="Vector_17" fill-rule="evenodd" clip-rule="evenodd" d="M36.4903 28.1506C36.2011 28.6808 36.3939 29.1146 36.8277 29.3556C37.358 29.6931 39.8645 30.0787 39.8645 30.0787C39.8645 30.0787 38.2738 28.1506 37.7436 27.8131C37.358 27.5721 36.8759 27.5721 36.5385 28.1506" fill="white"/>
<path id="Vector_18" fill-rule="evenodd" clip-rule="evenodd" d="M37.6962 24.7773C37.5998 25.4039 37.9372 25.6931 38.4192 25.7896C39.0459 25.886 41.5042 25.4521 41.5042 25.4521C41.5042 25.4521 39.3351 24.1988 38.7084 24.0542C38.2264 23.9578 37.7926 24.1506 37.6962 24.7773Z" fill="white"/>
<path id="Vector_19" fill-rule="evenodd" clip-rule="evenodd" d="M37.6962 21.1615C37.7926 21.7881 38.2264 21.9328 38.7084 21.8846C39.3351 21.7881 41.5042 20.4867 41.5042 20.4867C41.5042 20.4867 39.0459 20.0528 38.4192 20.1492C37.9372 20.2456 37.5998 20.5349 37.6962 21.1615Z" fill="white"/>
<path id="Vector_20" fill-rule="evenodd" clip-rule="evenodd" d="M36.4438 17.787C36.7812 18.3173 37.215 18.3173 37.6489 18.1244C38.1791 17.787 39.7698 15.8589 39.7698 15.8589C39.7698 15.8589 37.3114 16.2927 36.733 16.5819C36.2992 16.823 36.1064 17.2086 36.3956 17.787" fill="white"/>
<path id="Vector_21" fill-rule="evenodd" clip-rule="evenodd" d="M34.1311 14.9907C34.6132 15.3763 35.047 15.2317 35.3844 14.8943C35.77 14.4123 36.6377 12.0503 36.6377 12.0503C36.6377 12.0503 34.4685 13.3036 34.0347 13.7856C33.7455 14.1712 33.6491 14.6051 34.1311 15.0389" fill="white"/>
<path id="Vector_22" fill-rule="evenodd" clip-rule="evenodd" d="M30.992 13.2075C31.5705 13.4003 31.9561 13.1111 32.1007 12.6773C32.3417 12.0989 32.2935 9.59229 32.2935 9.59229C32.2935 9.59229 30.6546 11.5204 30.4618 12.0989C30.3172 12.5327 30.3654 13.0147 30.992 13.2075Z" fill="white"/>
<path id="Vector_23" fill-rule="evenodd" clip-rule="evenodd" d="M34.128 5.30237L32.248 4.91674L31.8624 6.74847L30.5127 6.45925L31.4768 1.92813L34.7546 2.60298L34.5618 3.51884L32.6819 3.13322L32.489 4.00088L34.369 4.3865L34.1762 5.30237H34.128ZM29.7897 4.48291H27.8615V6.31464H26.4636L26.56 1.63891H29.8861V2.65118H27.9579V3.51884H29.8861V4.48291H29.7897ZM26.0298 6.17003L24.3427 6.50745L22.1735 4.72393L22.6074 6.84487L21.2095 7.13409L20.2936 2.55478L21.6915 2.26556L22.1253 4.2901L23.3786 1.92813L24.8729 1.63891L23.6196 4.09728L26.078 6.12182L26.0298 6.17003ZM7.51972 38.3216C5.7362 35.0438 4.77213 31.3322 4.77213 27.5241C4.77213 21.4505 7.13409 15.7625 11.4242 11.4724C12.5329 10.3637 13.7862 9.35145 15.0876 8.48379L14.22 6.94128C12.7739 7.85714 11.4242 8.96582 10.1709 10.2191C5.54338 14.8466 3.03681 20.9684 3.03681 27.4759C3.03681 31.7178 4.09728 35.8633 6.17003 39.4785C6.60386 39.0929 7.08589 38.7073 7.51972 38.3216ZM40.7318 6.94128L39.8642 8.43558C41.1656 9.30324 42.4189 10.2673 43.5276 11.4242C47.8177 15.7143 50.1797 21.4023 50.1797 27.4759C50.1797 31.3322 49.2156 34.9956 47.4321 38.2734C47.8659 38.6591 48.3479 39.0447 48.7818 39.4303C50.8063 35.8151 51.915 31.7178 51.915 27.4277C51.915 20.9202 49.3602 14.7502 44.7327 10.1709C43.4794 8.91762 42.1297 7.85714 40.6836 6.89308L40.7318 6.94128ZM47.5285 43.0456L46.9018 43.7686H44.2507L45.6968 45.1183L44.9737 45.8896L42.3707 43.5276L42.9974 42.8528H45.6486L44.2025 41.5031L44.9255 40.7318L47.5285 43.0938V43.0456ZM44.106 46.6608L43.2384 47.2875L42.6117 46.9018L41.3585 47.8177L41.5513 48.5408L40.6836 49.1674L39.8642 45.4075L40.78 44.7327L44.106 46.6608ZM42.0333 46.5644L40.8764 45.8414L41.2138 47.1911L42.0333 46.5644ZM39.1411 46.9982L37.9842 47.5767L39.1411 49.9386L38.177 50.4207L37.0202 48.0587L35.8633 48.6372L35.4776 47.8659L38.7073 46.2752L39.0929 47.0465L39.1411 46.9982ZM35.7669 50.3725C35.7669 50.3725 35.8151 50.7581 35.7669 50.9509C35.7187 51.1437 35.5741 51.2883 35.4294 51.433C35.2848 51.5776 35.0438 51.674 34.8028 51.7704H34.5618C34.5618 51.7704 34.3208 51.8668 34.128 51.8668C33.9351 51.8668 33.7423 51.8668 33.5495 51.8668L33.3085 51.0473C33.3085 51.0473 33.6941 51.1437 33.8869 51.1437C34.0798 51.1437 34.2726 51.1437 34.4654 51.0955C34.6582 51.0473 34.7546 50.9991 34.7546 50.9027V50.7099L34.5618 50.5171C34.4654 50.5171 34.3208 50.4689 34.128 50.4207C33.9351 50.4207 33.7423 50.3725 33.5495 50.3243C33.4049 50.2761 33.2121 50.1797 33.1157 50.0833C32.9711 49.9869 32.8747 49.8422 32.8265 49.6494C32.7783 49.4566 32.7783 49.312 32.8265 49.1192C32.8265 48.9264 32.9711 48.7818 33.1157 48.6372C33.2603 48.4925 33.5013 48.3961 33.7423 48.2997C33.9351 48.2515 34.128 48.2033 34.2726 48.2033C34.4654 48.2033 34.5618 48.2033 34.7064 48.2033C34.8028 48.2033 34.8992 48.2033 34.9474 48.2033L35.1884 48.9746C35.1884 48.9746 34.851 48.8782 34.6582 48.83C34.4654 48.83 34.2726 48.83 34.0798 48.8782C33.9351 48.8782 33.8869 48.9746 33.8387 49.0228V49.2156L33.9351 49.3602C34.0316 49.3602 34.128 49.4084 34.2726 49.4566C34.5618 49.4566 34.8028 49.553 34.9956 49.6012C35.1884 49.6494 35.333 49.7458 35.4776 49.8422C35.6223 49.9387 35.7187 50.0833 35.7669 50.2761V50.3725ZM32.1998 52.4452L31.1394 52.5416L30.9947 51.1919L29.404 51.3848L29.5486 52.7344L28.4882 52.8308L28.1025 49.3602L29.163 49.2638L29.3076 50.5171L30.8983 50.3243L30.7537 49.0228L31.8142 48.9264L32.1998 52.397V52.4452ZM27.3795 52.8791L26.078 52.7826L24.8729 51.0473L24.7283 52.6862L23.6678 52.5898L23.9571 49.1192L25.0175 49.2156L24.8729 50.7581L26.2708 49.312L27.4277 49.4084L25.9816 50.9509L27.3313 52.9273L27.3795 52.8791ZM22.5592 52.4452L21.4987 52.156L21.4023 51.3848L19.9562 50.9509L19.4741 51.5294L18.4137 51.2401L20.872 48.2997L21.9807 48.6372L22.511 52.4452H22.5592ZM21.3541 50.7099L21.2095 49.3602L20.3418 50.4689L21.3541 50.7581V50.7099ZM17.6906 50.9509L14.5092 49.3602L17.305 47.7695L15.8107 47.0465L16.1963 46.2752L19.2331 47.8177L16.4373 49.4084L18.028 50.2279L17.6424 50.9991L17.6906 50.9509ZM13.7862 48.9264L12.9185 48.2515L13.1113 47.5285L11.9062 46.6126L11.2314 46.9982L10.3637 46.3234L13.7379 44.4917L14.6538 45.2147L13.7379 48.9264H13.7862ZM13.3041 46.9018L13.6897 45.5521L12.4847 46.2752L13.3041 46.9018ZM9.88168 45.8414L9.01402 44.8773L9.35145 42.8046L8.14636 43.9132L7.42331 43.142L10.0263 40.8282L10.7493 41.5995L9.59246 42.66L11.617 42.5635L12.3883 43.4312L10.3155 43.5276L9.92989 45.8896L9.88168 45.8414ZM27.4759 55C12.2918 55 0 42.7082 0 27.5241C0 12.3401 12.2918 0 27.4759 0C42.6599 0 54.9518 12.2918 54.9518 27.4759C54.9518 42.6599 42.6599 54.9518 27.4759 54.9518V55ZM27.4759 47.0947C38.2734 47.0947 47.0465 38.3216 47.0465 27.5241C47.0465 16.7266 38.2734 7.90535 27.4759 7.90535C16.6784 7.90535 7.90535 16.6784 7.90535 27.4759C7.90535 38.2734 16.6784 47.0465 27.4759 47.0465V47.0947Z" fill="white"/>
</g>
<defs>
<clipPath id="clip0_27_19520">
<rect width="55" height="55" fill="white"/>
</clipPath>
</defs>
</svg>
