<svg width="80" height="35" viewBox="0 0 80 35" fill="none" xmlns="http://www.w3.org/2000/svg">
<g id="UEFA_logo 1" clip-path="url(#clip0_27_19546)">
<path id="Vector" d="M16.8477 24.605C16.0997 25.2 15.2093 25.515 14.3544 25.445C13.3571 25.34 12.7159 24.92 11.7898 23.765L6.94568 17.885L4.77293 19.635L10.0801 26.04C11.1843 27.37 12.4666 28.105 13.927 28.21C15.6011 28.35 17.0614 27.86 18.5574 26.705C20.0178 25.55 20.8014 24.22 21.0151 22.575C21.1576 21.14 20.7302 19.775 19.626 18.445L14.3188 12.005L12.1817 13.72L17.0258 19.6C17.9875 20.755 18.2369 21.42 18.1656 22.435C18.0944 23.205 17.5957 24.01 16.8477 24.605ZM67.1772 30.8L71.2021 17.045C71.3446 16.555 71.4158 16.065 70.7391 15.575L70.2048 15.155C69.5637 14.665 69.065 14.84 68.6376 15.12L56.4559 22.89L59.0205 24.325L67.8183 18.725L66.4292 23.45L65.2894 22.575L62.9742 24.08L65.6812 26.11L64.8976 28.77L67.1772 30.8ZM40 2.135C55.0668 2.135 68.7088 8.225 78.4328 18.06L80 16.555C69.8486 6.335 55.6723 0 40 0C24.3277 0 10.1514 6.335 0 16.555L1.53161 18.06C11.2912 8.225 24.9332 2.135 40 2.135ZM40 24.675C49.2253 24.675 57.5245 28.665 63.1879 35L64.8264 33.6C58.7711 26.845 49.902 22.54 40.0356 22.54C30.1692 22.54 21.3001 26.81 15.2449 33.6L16.8833 35C22.4755 28.665 30.7747 24.675 40 24.675ZM51.8255 9.52L56.8121 10.815L57.4533 8.33L52.3597 7.035C49.9733 6.44 47.7649 7 46.9813 9.87L44.7017 18.41C44.5592 19.04 44.8798 19.495 45.4497 19.67L47.1238 20.09L48.6198 14.56L54.8175 16.17L55.4586 13.72L49.2609 12.11L49.6171 10.815C49.9377 9.45 50.5432 9.205 51.8255 9.52ZM34.764 5.53L26.1799 7.245C25.5744 7.35 25.2538 7.84 25.3606 8.47L27.1772 17.115C27.7827 20.055 29.9555 20.755 32.3776 20.265L37.6135 19.215L37.0793 16.695L32.0214 17.71C30.7035 17.99 30.1336 17.71 29.813 16.275L29.5637 15.015L35.8682 13.755L35.3339 11.27L29.0294 12.53L28.4239 9.45L35.2983 8.05L34.764 5.53Z" fill="white"/>
</g>
<defs>
<clipPath id="clip0_27_19546">
<rect width="80" height="35" fill="white"/>
</clipPath>
</defs>
</svg>
