<svg xmlns="http://www.w3.org/2000/svg" width="64" height="64" viewBox="0 0 64 64" fill="none">
  <circle cx="32" cy="32" r="32" fill="#E2E8F0"/>
  <path
    d="M32 12c8.3 0 16.2 2.7 22.1 7.6a2 2 0 0 1 .7 1.5v15.1c0 9.4-7 17.8-21.6 22.2a2 2 0 0 1-1.2 0C17.3 54 10.3 45.6 10.3 36.2V21.1a2 2 0 0 1 .7-1.5C16.8 14.7 23.7 12 32 12Z"
    fill="#94A3B8"
  />
  <path
    d="M32 20c5.6 0 10.9 1.7 15 4.9v11.3c0 6-4.3 11.7-15 15-10.7-3.3-15-9-15-15V24.9C21.1 21.7 26.4 20 32 20Z"
    fill="#CBD5E1"
  />
</svg>

